<?xml version="1.0" encoding="utf-8"?>
<!-- Generator: Adobe Illustrator 22.1.0, SVG Export Plug-In . SVG Version: 6.00 Build 0)  -->
<svg version="1.1" id="Layer_1" xmlns="http://www.w3.org/2000/svg" xmlns:xlink="http://www.w3.org/1999/xlink" x="0px" y="0px"
	 viewBox="0 0 210.4 210.4" style="enable-background:new 0 0 210.4 210.4;" xml:space="preserve">
<style type="text/css">
	.st0{fill:#EFEFEF;}
</style>
<g id="Layer_1_1_">
	<path class="st0" d="M105.2,0C66.5,0,35.1,31.5,35.1,70.1v70.2c0,38.7,31.5,70.1,70.1,70.1s70.1-31.4,70.1-70.1V70.1
		C175.3,31.5,143.9,0,105.2,0z M167.6,140.3c0,34.4-28,62.3-62.3,62.3S43,174.7,43,140.3V70.1c0-34.4,28-62.3,62.3-62.3
		s62.3,28,62.3,62.3V140.3z"/>
</g>
<g id="Layer_2_1_">
	<path class="st0" d="M105.2,23.4c-2.2,0-3.9,1.7-3.9,3.9v35.3c0,2.2,1.7,3.9,3.9,3.9s3.9-1.7,3.9-3.9V27.3
		C109.1,25.1,107.4,23.4,105.2,23.4z"/>
</g>
</svg>
